<svg xmlns="http://www.w3.org/2000/svg" width="32" height="32" viewBox="0 0 24 24"><path fill="currentColor" d="M5.204 11.412L3.396 9.604q-.242-.242-.232-.565q.009-.324.251-.566l1.789-1.789q.242-.242.565-.242t.565.242l1.789 1.789q.243.242.243.565t-.243.566l-1.789 1.788q-.242.243-.565.252t-.565-.232M10.616 21q-.344 0-.576-.232q-.232-.233-.232-.576v-3.788q-1.323-.103-2.62-.283q-1.297-.179-2.594-.462q-.232-.061-.39-.234t-.088-.396q.067-.223.272-.327q.204-.104.437-.043q1.767.406 3.566.575q1.799.17 3.609.17t3.61-.17q1.798-.169 3.565-.575q.233-.061.438.041q.206.102.272.32q.067.232-.09.405t-.39.234q-1.296.283-2.593.462t-2.62.283v3.788q0 .343-.232.576t-.576.232zM5.769 10.58l1.523-1.54L5.77 7.516L4.227 9.039zM12 7.386q-.961 0-1.634-.673q-.674-.673-.674-1.635t.674-1.635T12 2.77t1.635.673t.673 1.635t-.674 1.635T12 7.385m0 6.404q-.698 0-1.195-.498q-.497-.497-.497-1.195t.497-1.195T12 10.404t1.195.497t.497 1.195t-.497 1.195T12 13.79m0-7.404q.54 0 .924-.384t.384-.924t-.384-.924T12 3.769t-.924.384t-.384.924t.384.924t.924.384m4.756 5.057l-.862-1.5q-.106-.18-.106-.4t.106-.407l.862-1.5q.105-.193.289-.298t.407-.106h1.654q.224 0 .407.106t.289.298l.862 1.5q.105.18.105.4t-.105.407l-.862 1.5q-.106.193-.289.299t-.407.105h-1.654q-.224 0-.407-.105q-.184-.106-.29-.299m.798-.596h1.458l.723-1.307l-.729-1.308h-1.459l-.723 1.308zm.735-1.307"/></svg>